<svg width="1000" height="302" viewBox="0 0 1000 302" fill="none" xmlns="http://www.w3.org/2000/svg">
<path fill-rule="evenodd" clip-rule="evenodd" d="M620.38 235.668C562.269 278.501 478.039 301.354 405.52 301.354C303.835 301.354 212.293 263.744 143.037 201.193C137.596 196.274 142.472 189.57 149.001 193.401C223.741 236.887 316.154 263.048 411.614 263.048C475.994 263.048 546.816 249.728 611.936 222.087C621.773 217.908 630 228.529 620.38 235.668" fill="#FF9900"/>
<path fill-rule="evenodd" clip-rule="evenodd" d="M644.539 208.027C637.139 198.537 595.438 203.543 576.721 205.763C571.018 206.46 570.148 201.497 575.284 197.928C608.497 174.553 662.996 181.3 669.351 189.135C675.706 197.014 667.697 251.643 636.486 277.717C631.698 281.722 627.127 279.589 629.26 274.279C636.269 256.78 651.983 217.56 644.539 208.027" fill="#FF9900"/>
<path fill-rule="evenodd" clip-rule="evenodd" d="M578.026 32.9082V10.1859C578.026 6.74706 580.638 4.44 583.772 4.44H685.5C688.765 4.44 691.377 6.79059 691.377 10.1859V29.6435C691.333 32.9082 688.591 37.1741 683.716 43.9211L631.002 119.183C650.59 118.705 671.266 121.621 689.026 131.633C693.031 133.896 694.119 137.205 694.424 140.469V164.715C694.424 168.023 690.767 171.897 686.937 169.895C655.639 153.485 614.069 151.7 579.463 170.069C575.937 171.985 572.237 168.154 572.237 164.846V141.819C572.237 138.119 572.281 131.807 575.981 126.192L637.052 38.6105H583.903C580.638 38.6105 578.026 36.3035 578.026 32.9082" fill="#F9F8F9"/>
<path fill-rule="evenodd" clip-rule="evenodd" d="M206.939 174.683H175.989C173.029 174.466 170.679 172.246 170.461 169.416V10.5777C170.461 7.40005 173.116 4.87533 176.424 4.87533H205.284C208.288 5.00583 210.682 7.31297 210.9 10.1859V30.9494H211.466C218.996 10.8824 233.143 1.52356 252.209 1.52356C271.58 1.52356 283.681 10.8824 292.387 30.9494C299.874 10.8824 316.894 1.52356 335.133 1.52356C348.104 1.52356 362.295 6.87767 370.957 18.8918C380.751 32.2553 378.749 51.6694 378.749 68.6894L378.705 168.938C378.705 172.115 376.05 174.683 372.742 174.683H341.836C338.745 174.466 336.264 171.985 336.264 168.938V84.7517C336.264 78.0482 336.874 61.3329 335.394 54.9776C333.087 44.3129 326.165 41.3094 317.198 41.3094C309.711 41.3094 301.876 46.3153 298.698 54.3247C295.521 62.3341 295.826 75.7411 295.826 84.7517V168.938C295.826 172.115 293.17 174.683 289.862 174.683H258.956C255.822 174.466 253.384 171.985 253.384 168.938L253.341 84.7517C253.341 67.0353 256.257 40.9612 234.275 40.9612C212.032 40.9612 212.902 66.3823 212.902 84.7517V168.938C212.902 172.115 210.247 174.683 206.939 174.683" fill="#F9F8F9"/>
<path fill-rule="evenodd" clip-rule="evenodd" d="M778.958 1.52356C824.881 1.52356 849.737 40.9612 849.737 91.107C849.737 139.555 822.27 177.992 778.958 177.992C733.861 177.992 709.311 138.554 709.311 89.4093C709.311 39.96 734.166 1.52356 778.958 1.52356V1.52356ZM779.219 33.953C756.41 33.953 754.973 65.0329 754.973 84.4035C754.973 103.818 754.668 145.258 778.958 145.258C802.943 145.258 804.074 111.827 804.074 91.4552C804.074 78.0482 803.508 62.0294 799.46 49.3188C795.978 38.2624 789.057 33.953 779.219 33.953" fill="#F9F8F9"/>
<path fill-rule="evenodd" clip-rule="evenodd" d="M909.285 174.683H878.466C875.375 174.466 872.894 171.985 872.894 168.938L872.851 10.0553C873.112 7.13885 875.68 4.87533 878.814 4.87533H907.5C910.199 5.00583 912.419 6.83415 913.028 9.31533V33.6047H913.594C922.257 11.8836 934.401 1.52356 955.774 1.52356C969.66 1.52356 983.198 6.52944 991.904 20.2412C1000 32.9518 1000 54.3247 1000 69.6905V169.678C999.652 172.463 997.084 174.683 994.037 174.683H963C960.171 174.466 957.82 172.376 957.515 169.678V83.4023C957.515 66.0341 959.518 40.6129 938.145 40.6129C930.614 40.6129 923.693 45.6624 920.254 53.3235C915.901 63.0306 915.335 72.6941 915.335 83.4023V168.938C915.292 172.115 912.593 174.683 909.285 174.683" fill="#F9F8F9"/>
<path fill-rule="evenodd" clip-rule="evenodd" d="M496.931 98.8117C496.931 110.869 497.236 120.925 491.142 131.633C486.223 140.339 478.388 145.693 469.725 145.693C457.842 145.693 450.877 136.639 450.877 123.275C450.877 96.8964 474.514 92.1081 496.931 92.1081V98.8117V98.8117ZM528.142 174.248C526.096 176.076 523.136 176.207 520.829 174.988C510.556 166.456 508.684 162.495 503.069 154.355C486.092 171.68 474.035 176.86 452.052 176.86C425.978 176.86 405.737 160.797 405.737 128.629C405.737 103.513 419.318 86.4058 438.732 78.0482C455.535 70.6481 478.997 69.3423 496.931 67.2964V63.2917C496.931 55.9352 497.497 47.2294 493.144 40.8741C489.401 35.1717 482.175 32.8211 475.776 32.8211C463.979 32.8211 453.489 38.8717 450.921 51.4082C450.398 54.1941 448.352 56.9364 445.523 57.067L415.531 53.8458C413.007 53.28 410.177 51.2341 410.917 47.36C417.795 10.9694 450.703 0 480.129 0C495.19 0 514.865 4.00471 526.749 15.4094C541.81 29.4694 540.374 48.2305 540.374 68.6458V116.876C540.374 131.372 546.381 137.727 552.039 145.562C553.998 148.348 554.434 151.7 551.909 153.789C545.597 159.056 534.366 168.85 528.185 174.335L528.142 174.248" fill="#F9F8F9"/>
<path fill-rule="evenodd" clip-rule="evenodd" d="M91.194 98.8117C91.194 110.869 91.4987 120.925 85.4046 131.633C80.4858 140.339 72.694 145.693 63.9881 145.693C52.1046 145.693 45.1835 136.639 45.1835 123.275C45.1835 96.8964 68.8199 92.1081 91.194 92.1081V98.8117V98.8117ZM122.405 174.248C120.359 176.076 117.399 176.207 115.092 174.988C104.819 166.456 102.99 162.495 97.3316 154.355C80.3552 171.68 68.3411 176.86 46.3152 176.86C20.2847 176.86 0 160.797 0 128.629C0 103.513 13.6247 86.4058 32.9952 78.0482C49.7976 70.6481 73.2599 69.3423 91.194 67.2964V63.2917C91.194 55.9352 91.7599 47.2294 87.4505 40.8741C83.6634 35.1717 76.4376 32.8211 70.0823 32.8211C58.2858 32.8211 47.7517 38.8717 45.1835 51.4082C44.6611 54.1941 42.6152 56.9364 39.8294 57.067L9.79411 53.8458C7.2694 53.28 4.48352 51.2341 5.17999 47.36C12.1012 10.9694 44.9658 0 74.3917 0C89.4528 0 109.128 4.00471 121.012 15.4094C136.073 29.4694 134.636 48.2305 134.636 68.6458V116.876C134.636 131.372 140.643 137.727 146.302 145.562C148.305 148.348 148.74 151.7 146.215 153.789C139.903 159.056 128.673 168.85 122.492 174.335L122.405 174.248" fill="#F9F8F9"/>
</svg>
